<svg width="26" height="21" viewBox="0 0 26 21" fill="none" xmlns="http://www.w3.org/2000/svg">
<path d="M20.9544 17.2409V17.9353C20.9544 19.0859 20.0217 20.0187 18.8711 20.0187H2.20443C1.05382 20.0187 0.121094 19.0859 0.121094 17.9353V6.82422C0.121094 5.67361 1.05382 4.74088 2.20443 4.74088H2.89887V13.7687C2.89887 15.6832 4.45651 17.2409 6.37109 17.2409H20.9544ZM25.1211 13.7687V2.65755C25.1211 1.50694 24.1884 0.574219 23.0378 0.574219H6.37109C5.22049 0.574219 4.28776 1.50694 4.28776 2.65755V13.7687C4.28776 14.9193 5.22049 15.852 6.37109 15.852H23.0378C24.1884 15.852 25.1211 14.9193 25.1211 13.7687ZM11.2322 4.74088C11.2322 5.89149 10.2995 6.82422 9.14887 6.82422C7.99826 6.82422 7.06554 5.89149 7.06554 4.74088C7.06554 3.59028 7.99826 2.65755 9.14887 2.65755C10.2995 2.65755 11.2322 3.59028 11.2322 4.74088ZM7.06554 10.9909L9.47504 8.58138C9.67843 8.37799 10.0082 8.37799 10.2116 8.58138L11.9266 10.2964L17.8084 4.41471C18.0118 4.21133 18.3415 4.21133 18.545 4.41471L22.3433 8.21311V13.0742H7.06554V10.9909Z" fill="#F3EEEE"/>
</svg>
