<svg width="27" height="30" viewBox="0 0 27 30" fill="none" xmlns="http://www.w3.org/2000/svg">
<g clip-path="url(#clip0_509_4350)">
<path d="M13.1247 0C12.0876 0 11.2497 0.837891 11.2497 1.875V3C6.97232 3.86719 3.74967 7.65234 3.74967 12.1875V13.6758C3.74967 16.3359 2.84146 18.9199 1.18326 20.9941L0.310213 22.0898C-0.0296305 22.5117 -0.0940837 23.0918 0.140291 23.5781C0.374666 24.0645 0.866854 24.375 1.40592 24.375H24.8434C25.3825 24.375 25.8747 24.0645 26.109 23.5781C26.3434 23.0918 26.279 22.5117 25.9391 22.0898L25.0661 21C23.4079 18.9199 22.4997 16.3359 22.4997 13.6758V12.1875C22.4997 7.65234 19.277 3.86719 14.9997 3V1.875C14.9997 0.837891 14.1618 0 13.1247 0ZM13.1247 5.625C16.7516 5.625 19.6872 8.56055 19.6872 12.1875V13.6758C19.6872 16.4824 20.5016 19.2188 22.0133 21.5625H4.23599C5.74771 19.2188 6.56217 16.4824 6.56217 13.6758V12.1875C6.56217 8.56055 9.49771 5.625 13.1247 5.625ZM16.8747 26.25H13.1247H9.37467C9.37467 27.2461 9.76724 28.2012 10.4704 28.9043C11.1735 29.6074 12.1286 30 13.1247 30C14.1208 30 15.0758 29.6074 15.779 28.9043C16.4821 28.2012 16.8747 27.2461 16.8747 26.25Z" fill="black"/>
</g>
<defs>
<clipPath id="clip0_509_4350">
<rect width="26.25" height="30" fill="white"/>
</clipPath>
</defs>
</svg>
