<svg width="25" height="25" viewBox="0 0 25 25" fill="none" xmlns="http://www.w3.org/2000/svg">
<path d="M0.892857 4.59184H24.1071C24.6003 4.59184 25 4.13501 25 3.57143V1.02041C25 0.456824 24.6003 0 24.1071 0H0.892857C0.399721 0 0 0.456824 0 1.02041V3.57143C0 4.13501 0.399721 4.59184 0.892857 4.59184ZM0.892857 14.7959H24.1071C24.6003 14.7959 25 14.3391 25 13.7755V11.2245C25 10.6609 24.6003 10.2041 24.1071 10.2041H0.892857C0.399721 10.2041 0 10.6609 0 11.2245V13.7755C0 14.3391 0.399721 14.7959 0.892857 14.7959ZM0.892857 25H24.1071C24.6003 25 25 24.5432 25 23.9796V21.4286C25 20.865 24.6003 20.4082 24.1071 20.4082H0.892857C0.399721 20.4082 0 20.865 0 21.4286V23.9796C0 24.5432 0.399721 25 0.892857 25Z" fill="white"/>
</svg>
