<svg width="151" height="30" viewBox="0 0 151 30" fill="none" xmlns="http://www.w3.org/2000/svg">
<path d="M8.76 30C7.02667 30 5.50667 29.6133 4.2 28.84C2.89333 28.0667 1.88 27.04 1.16 25.76C0.44 24.48 0.08 23.0667 0.08 21.52V2H6.8V22C6.8 22.64 7.02667 23.2 7.48 23.68C7.93333 24.16 8.49333 24.4 9.16 24.4H16.56V30H8.76ZM30.3759 30C28.0559 30 26.0159 29.5733 24.2559 28.72C22.4959 27.84 21.1226 26.64 20.1359 25.12C19.1759 23.5733 18.6959 21.7867 18.6959 19.76C18.6959 17.52 19.1626 15.6 20.0959 14C21.0293 12.4 22.2693 11.1733 23.8159 10.32C25.3893 9.44 27.1226 9 29.0159 9C31.1759 9 32.9759 9.45333 34.4159 10.36C35.8826 11.2667 36.9893 12.5067 37.7359 14.08C38.4826 15.6267 38.8559 17.4 38.8559 19.4C38.8559 19.7467 38.8293 20.16 38.7759 20.64C38.7493 21.0933 38.7093 21.4533 38.6559 21.72H25.2159C25.3759 22.4133 25.6826 23 26.1359 23.48C26.5893 23.96 27.1626 24.32 27.8559 24.56C28.5493 24.7733 29.3226 24.88 30.1759 24.88H36.4559V30H30.3759ZM25.0559 17.84H32.8559C32.8026 17.4133 32.7226 17 32.6159 16.6C32.5093 16.2 32.3359 15.8533 32.0959 15.56C31.8826 15.24 31.6293 14.9733 31.3359 14.76C31.0426 14.52 30.6959 14.3333 30.2959 14.2C29.9226 14.0667 29.4959 14 29.0159 14C28.4026 14 27.8559 14.1067 27.3759 14.32C26.8959 14.5333 26.4959 14.8267 26.1759 15.2C25.8559 15.5467 25.6026 15.96 25.4159 16.44C25.2559 16.8933 25.1359 17.36 25.0559 17.84ZM42.4684 30V18.2C42.4684 16.4933 42.8818 14.9467 43.7084 13.56C44.5351 12.1733 45.7084 11.0667 47.2284 10.24C48.7751 9.41333 50.6018 9 52.7084 9C54.8418 9 56.6551 9.41333 58.1484 10.24C59.6684 11.0667 60.8284 12.1733 61.6284 13.56C62.4284 14.9467 62.8284 16.4933 62.8284 18.2V30H56.6284V18.36C56.6284 17.64 56.4551 16.9867 56.1084 16.4C55.7618 15.7867 55.2818 15.3067 54.6684 14.96C54.0818 14.5867 53.4151 14.4 52.6684 14.4C51.8951 14.4 51.2018 14.5867 50.5884 14.96C50.0018 15.3067 49.5351 15.7867 49.1884 16.4C48.8418 16.9867 48.6684 17.64 48.6684 18.36V30H42.4684ZM67.5084 30V25.08H77.3884C77.6551 25.08 77.8951 25.0267 78.1084 24.92C78.3218 24.7867 78.4951 24.6133 78.6284 24.4C78.7618 24.1867 78.8284 23.96 78.8284 23.72C78.8284 23.4533 78.7618 23.2133 78.6284 23C78.4951 22.7867 78.3218 22.6267 78.1084 22.52C77.8951 22.3867 77.6551 22.32 77.3884 22.32H73.7884C72.4551 22.32 71.2418 22.1067 70.1484 21.68C69.0818 21.2267 68.2284 20.5333 67.5884 19.6C66.9751 18.64 66.6684 17.4 66.6684 15.88C66.6684 14.7067 66.9484 13.64 67.5084 12.68C68.0951 11.72 68.8818 10.9467 69.8684 10.36C70.8818 9.77333 71.9884 9.48 73.1884 9.48H83.0684V14.44H74.1484C73.7751 14.44 73.4551 14.56 73.1884 14.8C72.9484 15.04 72.8284 15.3333 72.8284 15.68C72.8284 16.0533 72.9484 16.3733 73.1884 16.64C73.4551 16.88 73.7751 17 74.1484 17H77.6684C79.1618 17 80.4418 17.2267 81.5084 17.68C82.6018 18.1067 83.4418 18.8 84.0284 19.76C84.6418 20.72 84.9484 21.96 84.9484 23.48C84.9484 24.68 84.6418 25.7733 84.0284 26.76C83.4418 27.7467 82.6418 28.5333 81.6284 29.12C80.6418 29.7067 79.5218 30 78.2684 30H67.5084ZM88.7994 30V2H100.839C102.706 2 104.413 2.42666 105.959 3.28C107.533 4.13333 108.786 5.32 109.719 6.84C110.653 8.33333 111.119 10.0667 111.119 12.04C111.119 14.0133 110.653 15.7733 109.719 17.32C108.786 18.84 107.546 20.0267 105.999 20.88C104.453 21.7333 102.733 22.16 100.839 22.16H95.5194V30H88.7994ZM95.5194 16.52H100.079C100.879 16.52 101.599 16.3467 102.239 16C102.879 15.6533 103.399 15.1467 103.799 14.48C104.199 13.8133 104.399 13.0133 104.399 12.08C104.399 11.1467 104.199 10.3467 103.799 9.68C103.399 9.01333 102.866 8.50667 102.199 8.16C101.559 7.78667 100.853 7.6 100.079 7.6H95.5194V16.52ZM114.422 30V0.799999H120.622V17.24H123.342L128.022 9.48H134.942L129.422 18.04C131.022 18.7067 132.262 19.7333 133.142 21.12C134.048 22.48 134.502 24.08 134.502 25.92V30H128.262V25.92C128.262 25.1733 128.075 24.5067 127.702 23.92C127.355 23.3067 126.888 22.8267 126.302 22.48C125.715 22.1333 125.048 21.96 124.302 21.96H120.622V30H114.422ZM138.324 30V15.52C138.324 13.6533 138.857 12.1867 139.924 11.12C140.991 10.0533 142.471 9.52 144.364 9.52H150.324V14.56H145.884C145.511 14.56 145.191 14.6933 144.924 14.96C144.657 15.2 144.524 15.52 144.524 15.92V30H138.324Z" fill="black"/>
</svg>
