<svg width="75" height="25" viewBox="0 0 75 25" fill="none" xmlns="http://www.w3.org/2000/svg">
<rect x="1" y="1" width="73" height="23" rx="11.5" fill="#E71D36" stroke="#F3EEEE" stroke-width="2"/>
<rect x="2" y="1" width="40" height="23" rx="11.5" fill="#F3EEEE"/>
<path d="M27.8065 5.14682C30.3468 6.93253 32 9.85317 32 13.1587C32 18.5873 27.5323 22.9881 22.0202 23C16.5161 23.0119 12.0081 18.5952 12 13.1746C11.996 9.86904 13.6492 6.94047 16.1855 5.15079C16.6573 4.82143 17.3145 4.96032 17.5968 5.45635L18.2339 6.57142C18.4718 6.98809 18.3589 7.51587 17.9677 7.80158C16.2944 9.0238 15.2258 10.9603 15.2258 13.1547C15.2218 16.8174 18.2298 19.8254 22 19.8254C25.6936 19.8254 28.7984 16.8809 28.7742 13.1151C28.7621 11.0595 27.7782 9.07539 26.0282 7.79761C25.6371 7.5119 25.5282 6.98412 25.7661 6.57142L26.4032 5.45635C26.6855 4.96428 27.3387 4.81746 27.8065 5.14682ZM23.6129 13.4762V3.95238C23.6129 3.4246 23.1815 3 22.6452 3H21.3548C20.8186 3 20.3871 3.4246 20.3871 3.95238V13.4762C20.3871 14.004 20.8186 14.4286 21.3548 14.4286H22.6452C23.1815 14.4286 23.6129 14.004 23.6129 13.4762Z" fill="#E71D36"/>
</svg>
