<svg width="75" height="25" viewBox="0 0 75 25" fill="none" xmlns="http://www.w3.org/2000/svg">
<rect x="1" y="1" width="73" height="23" rx="11.5" fill="#0D844F" stroke="#F3EEEE" stroke-width="2"/>
<rect x="33" y="1" width="40" height="23" rx="11.5" fill="#F3EEEE"/>
<path d="M58.8065 5.14682C61.3468 6.93253 63 9.85317 63 13.1587C63 18.5873 58.5323 22.9881 53.0202 23C47.5161 23.0119 43.0081 18.5952 43 13.1746C42.996 9.86904 44.6492 6.94047 47.1855 5.15079C47.6573 4.82143 48.3145 4.96032 48.5968 5.45635L49.2339 6.57142C49.4718 6.98809 49.3589 7.51587 48.9677 7.80158C47.2944 9.0238 46.2258 10.9603 46.2258 13.1547C46.2218 16.8174 49.2298 19.8254 53 19.8254C56.6936 19.8254 59.7984 16.8809 59.7742 13.1151C59.7621 11.0595 58.7782 9.07539 57.0282 7.79761C56.6371 7.5119 56.5282 6.98412 56.7661 6.57142L57.4032 5.45635C57.6855 4.96428 58.3387 4.81746 58.8065 5.14682ZM54.6129 13.4762V3.95238C54.6129 3.4246 54.1815 3 53.6452 3H52.3548C51.8186 3 51.3871 3.4246 51.3871 3.95238V13.4762C51.3871 14.004 51.8186 14.4286 52.3548 14.4286H53.6452C54.1815 14.4286 54.6129 14.004 54.6129 13.4762Z" fill="#0D844F"/>
</svg>
