<svg width="50" height="46" viewBox="0 0 50 46" fill="none" xmlns="http://www.w3.org/2000/svg">
<path d="M13.0474 30.4461C12.3328 29.8814 11.437 29.5703 10.5253 29.5703C9.2862 29.5703 8.13234 30.1209 7.35952 31.081C6.68375 31.9216 6.37779 32.9731 6.49839 34.0418C6.61915 35.1127 7.15339 36.072 8.00251 36.7431C8.7172 37.308 9.61262 37.619 10.5242 37.619C11.7642 37.619 12.9182 37.0674 13.6904 36.1063C14.3656 35.2671 14.6712 34.2168 14.5511 33.1486C14.4306 32.0777 13.8967 31.1178 13.0474 30.4461ZM12.2517 34.9497C11.8314 35.473 11.2017 35.7732 10.5242 35.7732C10.0192 35.7732 9.54294 35.6079 9.1473 35.2951C8.6872 34.9315 8.398 34.4129 8.33263 33.8349C8.26771 33.2591 8.43292 32.6918 8.79765 32.2383C9.21806 31.7159 9.84783 31.4162 10.5253 31.4162C11.0308 31.4162 11.5072 31.5816 11.9026 31.8942C12.3626 32.2578 12.6516 32.7767 12.7167 33.3551C12.7815 33.9304 12.6166 34.4965 12.2517 34.9497Z" fill="black"/>
<path d="M29.2776 20.9946C29.8864 20.9946 30.4751 20.8613 31.0287 20.5974C32.0074 20.1292 32.7425 19.3101 33.0983 18.2908C33.4523 17.278 33.3886 16.1881 32.9194 15.2229C32.2483 13.8394 30.8149 12.9453 29.2679 12.9453C28.6578 12.9453 28.0679 13.0791 27.5144 13.3433C26.5361 13.81 25.8006 14.6285 25.4442 15.6481C25.0896 16.6616 25.1532 17.7516 25.6231 18.7174C26.2964 20.1007 27.7308 20.9946 29.2776 20.9946ZM27.1864 16.2574C27.3793 15.7059 27.7781 15.2626 28.3091 15.0092C28.6124 14.8646 28.9348 14.7912 29.2677 14.7912C30.1124 14.7912 30.8938 15.2769 31.2587 16.0292C31.5118 16.5498 31.5461 17.1366 31.3556 17.6821C31.1629 18.2339 30.7637 18.6778 30.2333 18.9317C29.931 19.0758 29.6094 19.1487 29.2774 19.1487C28.432 19.1487 27.649 18.6623 27.2826 17.9096C27.0298 17.3898 26.9957 16.8031 27.1864 16.2574Z" fill="black"/>
<path d="M19.2338 14.4702C19.5307 14.5372 19.8345 14.5712 20.1367 14.5712C22.0368 14.5712 23.6601 13.2861 24.0847 11.4444C24.3233 10.4 24.1398 9.32494 23.5685 8.41674C22.9924 7.50147 22.092 6.86524 21.034 6.62558C20.7359 6.55789 20.4308 6.52344 20.1272 6.52344C18.2284 6.52344 16.6067 7.80989 16.1835 9.65136C15.9429 10.6949 16.1252 11.7702 16.6967 12.679C17.2732 13.5955 18.1745 14.2317 19.2338 14.4702ZM17.9825 10.0655C18.2119 9.06697 19.0939 8.36952 20.1272 8.36952C20.2932 8.36952 20.4607 8.38844 20.6254 8.42582C21.2026 8.55657 21.6928 8.90253 22.006 9.40001C22.3146 9.89025 22.4137 10.4702 22.2854 11.0313C22.0591 12.0129 21.1554 12.7253 20.1366 12.7253C19.9711 12.7253 19.8042 12.7065 19.6399 12.6694C19.0626 12.5395 18.5723 12.1938 18.2593 11.6963C17.9513 11.2064 17.853 10.6274 17.9825 10.0655Z" fill="black"/>
<path d="M11.8997 16.7738C12.7479 16.1017 13.2813 15.1416 13.4019 14.0705C13.522 13.0027 13.217 11.9523 12.5415 11.1117C11.7674 10.152 10.6127 9.60156 9.37358 9.60156C8.46277 9.60156 7.56795 9.91168 6.85312 10.4755C6.00476 11.1455 5.47114 12.104 5.35007 13.1744C5.22917 14.2436 5.53497 15.2958 6.21166 16.1378C6.9851 17.0986 8.14004 17.6498 9.3805 17.6498C10.2921 17.6496 11.1869 17.3386 11.8997 16.7738ZM7.65025 14.9806C7.28476 14.5259 7.11939 13.9579 7.18462 13.3814C7.24984 12.8041 7.53873 12.2863 7.99713 11.924C8.39262 11.6121 8.86872 11.4472 9.37373 11.4472C10.0518 11.4472 10.683 11.7471 11.1037 12.2688C11.4675 12.7219 11.6324 13.2885 11.5676 13.864C11.5025 14.443 11.2134 14.9626 10.7536 15.3269C10.3599 15.6387 9.88505 15.8036 9.38066 15.8036C8.70182 15.8037 8.07112 15.5034 7.65025 14.9806Z" fill="black"/>
<path d="M49.647 7.74187C49.4874 7.58096 49.2029 7.38914 48.7538 7.38914C48.2273 7.38914 46.8285 7.38914 38.3336 14.6178C38.1628 14.763 37.9906 14.9102 37.8177 15.0585C36.2998 11.0991 33.6331 7.56927 30.1967 5.01605C26.2566 2.08856 21.5649 0.540293 16.6292 0.539062C16.6276 0.539062 16.6266 0.539062 16.6253 0.539062C13.2944 0.539062 9.24532 1.70292 6.05787 3.577C2.15066 5.87394 -0.00076893 8.94587 2.06153e-07 12.2265C0.00123082 16.1873 2.23511 17.844 4.03012 19.1751C5.49379 20.2606 6.6498 21.1179 6.65041 22.9968C6.65087 24.8755 5.49548 25.732 4.03258 26.8164C2.23819 28.1467 0.00476885 29.8025 0.00599947 33.7637C0.00692243 37.044 2.15973 40.1167 6.06771 42.4156C9.25748 44.292 13.3087 45.4583 16.6403 45.4592C16.6426 45.4592 16.6446 45.4592 16.6467 45.4592C22.6929 45.4592 28.3767 43.1255 32.6515 38.8877C36.8719 34.7041 39.2192 29.1588 39.2809 23.2495C40.7139 21.6188 42.1022 19.9979 43.3696 18.4705C45.5379 15.8576 47.2053 13.7016 48.3253 12.0626C49.8091 9.8916 50.4589 8.56007 49.647 7.74187ZM31.3521 37.5768C27.4251 41.4699 22.2033 43.6133 16.6469 43.6133C16.6452 43.6133 16.6427 43.6133 16.641 43.6133C10.6868 43.6116 1.85362 39.4749 1.85193 33.7631C1.851 30.7317 3.44465 29.5501 5.13198 28.2992C6.70917 27.1298 8.4968 25.8044 8.49618 22.9961C8.49526 20.1883 6.70717 18.8622 5.12952 17.6923C3.44142 16.4403 1.84685 15.2579 1.84593 12.2261C1.84516 8.71867 5.07061 6.29866 6.99345 5.16819C9.86971 3.47716 13.65 2.38484 16.6253 2.38484C16.6264 2.38484 16.6276 2.38484 16.6286 2.38484C21.1651 2.38607 25.4762 3.80835 29.096 6.49756C32.4343 8.97802 34.9826 12.4601 36.3249 16.35C32.3216 19.8456 27.9864 23.8759 24.7579 27.1149C19.3956 27.8089 18.6651 31.3827 18.131 34.008C17.6763 36.2434 17.3811 37.3242 15.6556 37.4627C15.2304 37.4968 14.8842 37.8177 14.8179 38.239C14.7514 38.6602 14.9823 39.0722 15.3764 39.2354C15.4873 39.2812 18.1264 40.3595 21.2097 40.3597C21.2102 40.3597 21.2105 40.3597 21.2108 40.3597C23.3594 40.3597 25.2026 39.8388 26.6889 38.8117C28.5203 37.546 29.7622 35.5394 30.3863 32.8483C32.4957 30.7141 34.906 28.1406 37.2894 25.4897C36.7409 30.0537 34.6813 34.2766 31.3521 37.5768ZM28.5319 32.6736C27.5538 36.5494 25.0929 38.5141 21.2106 38.5139C21.2106 38.5139 21.21 38.5139 21.2097 38.5139C20.186 38.5139 19.2056 38.3743 18.3814 38.2001C19.3659 37.1961 19.6734 35.6852 19.9397 34.3763C20.4469 31.8831 20.9265 29.5235 24.8503 28.9629L28.5319 32.6736ZM41.2774 18.0969C37.6186 22.4559 33.1899 27.351 29.5442 31.0728L28.9798 30.504L26.4895 27.994C29.7949 24.7036 34.0354 20.7803 37.9916 17.3467C38.4528 16.9464 38.9111 16.5512 39.3627 16.1661C43.954 12.2504 46.3601 10.5463 47.5875 9.80469C46.8545 11.0395 45.1661 13.4639 41.2774 18.0969Z" fill="black"/>
</svg>
