<svg width="50" height="50" viewBox="0 0 50 50" fill="none" xmlns="http://www.w3.org/2000/svg">
<g clip-path="url(#clip0_509_4427)">
<path d="M49.9999 35.3104C49.9999 32.3846 49.1237 29.5595 47.4659 27.1405C46.2735 25.4005 44.738 23.9556 42.9586 22.8819C45.0536 20.8979 46.3644 18.0938 46.3644 14.9875C46.3644 8.98933 41.4844 4.10938 35.4865 4.10938C31.9298 4.10938 28.5981 5.86838 26.5744 8.7559C26.0601 8.68099 25.5347 8.64059 24.9999 8.64059C24.4651 8.64059 23.9399 8.68113 23.4256 8.7559C21.4018 5.86838 18.0701 4.10938 14.5135 4.10938C8.51542 4.10938 3.63547 8.98933 3.63547 14.9875C3.63547 18.0938 4.94627 20.8979 7.0414 22.8819C5.26185 23.9555 3.72634 25.4005 2.53408 27.1404C0.876282 29.5595 0 32.3846 0 35.3104V41.361H10.4865V45.8921H39.5136V41.361H50V35.3104H49.9999ZM35.4865 6.7942C40.0042 6.7942 43.6797 10.4697 43.6797 14.9876C43.6797 19.5055 40.0042 23.181 35.4865 23.181C35.4055 23.181 35.3246 23.1798 35.2435 23.1774C35.2497 23.1602 35.2548 23.1426 35.2608 23.1254C35.4007 22.7289 35.5173 22.3216 35.6109 21.9056C35.6175 21.8761 35.625 21.8468 35.6313 21.8172C35.6556 21.7049 35.6769 21.5916 35.6977 21.4781C35.7075 21.4244 35.7176 21.3708 35.7266 21.317C35.7435 21.2157 35.7588 21.1139 35.7729 21.0118C35.7827 20.9407 35.7916 20.8697 35.8 20.7986C35.8106 20.7084 35.821 20.618 35.8294 20.5272C35.838 20.4344 35.8445 20.3415 35.8506 20.2485C35.8555 20.1752 35.8615 20.1022 35.8649 20.0285C35.8722 19.8705 35.8764 19.7122 35.8769 19.5538C35.8769 19.5422 35.8779 19.5308 35.8779 19.5189C35.8779 19.5126 35.8773 19.5063 35.8773 19.5C35.8771 19.3383 35.8724 19.1774 35.8651 19.0172C35.863 18.9706 35.8602 18.9241 35.8575 18.8777C35.8496 18.7415 35.8392 18.6059 35.8265 18.471C35.8235 18.4404 35.8211 18.4098 35.818 18.3793C35.4124 14.4584 32.9353 11.1024 29.362 9.55016C30.9018 7.82028 33.129 6.7942 35.4865 6.7942ZM22.165 11.8309C22.1912 11.8214 22.2177 11.8124 22.2438 11.803C22.3253 11.7739 22.4075 11.7462 22.49 11.7195C22.5526 11.6995 22.6155 11.6802 22.6789 11.6617C22.7249 11.6481 22.7711 11.6351 22.8174 11.6222C22.9001 11.5995 22.9832 11.5774 23.0671 11.5571C23.6873 11.4065 24.334 11.3247 24.9997 11.3247C25.6659 11.3253 26.3129 11.4072 26.9332 11.5578C27.0165 11.5779 27.0991 11.5999 27.1814 11.6225C27.2284 11.6355 27.2753 11.6486 27.3219 11.6625C27.3845 11.6809 27.4468 11.6999 27.5086 11.7197C27.5923 11.7466 27.6754 11.7746 27.7578 11.8041C27.7831 11.8131 27.8085 11.8217 27.8338 11.8309C30.5739 12.8443 32.6283 15.2829 33.0933 18.2424C33.0969 18.266 33.1004 18.2898 33.1039 18.3135C33.1188 18.4138 33.1313 18.5149 33.1424 18.6162C33.1465 18.6535 33.1508 18.6907 33.1544 18.7282C33.1633 18.8207 33.1698 18.9138 33.1757 19.0072C33.1782 19.0472 33.1815 19.0871 33.1834 19.1272C33.189 19.2466 33.1921 19.3666 33.1925 19.4873C33.1925 19.4977 33.1932 19.5079 33.1932 19.5184C33.1932 19.5232 33.1929 19.5282 33.1929 19.533C33.1927 19.6498 33.1892 19.7658 33.1841 19.8814C33.1825 19.9177 33.1808 19.9541 33.1787 19.9904C33.1724 20.1021 33.1641 20.2132 33.1533 20.3235C33.1492 20.3662 33.1435 20.4088 33.1387 20.4513C33.1305 20.5227 33.1214 20.594 33.1114 20.6649C33.1037 20.7201 33.0959 20.7754 33.087 20.8303C33.0735 20.9139 33.0584 20.997 33.0423 21.0798C33.028 21.1535 33.0122 21.2269 32.9959 21.3002C32.9861 21.3444 32.9759 21.3886 32.9653 21.4324C32.9391 21.5413 32.9104 21.6495 32.8798 21.7573C32.8675 21.8001 32.8561 21.8432 32.8432 21.8856C32.8246 21.9474 32.8045 22.0086 32.7844 22.0698C32.7683 22.1188 32.7518 22.1675 32.7348 22.2161C32.7155 22.2713 32.6964 22.3266 32.676 22.3813C32.6412 22.4744 32.6047 22.5666 32.5667 22.658C32.5498 22.6988 32.5318 22.7392 32.5142 22.7799C32.4811 22.856 32.447 22.9317 32.4115 23.0066C32.4074 23.0155 32.4032 23.0243 32.3991 23.0332C32.3863 23.0598 32.3737 23.0865 32.3607 23.1131C32.3209 23.1941 32.2796 23.2743 32.2372 23.3537C32.2207 23.3846 32.2047 23.4159 32.1878 23.4466C32.1867 23.4486 32.1856 23.4505 32.1846 23.4524C32.1381 23.537 32.0897 23.6202 32.0404 23.7029C32.0208 23.7356 32.0015 23.7685 31.9815 23.8009C31.9278 23.888 31.8726 23.9742 31.8158 24.059C31.7805 24.1118 31.7436 24.1634 31.7071 24.2154C31.6761 24.2594 31.6452 24.3036 31.6134 24.3469C31.5722 24.4031 31.5302 24.4585 31.4875 24.5137C31.4585 24.5511 31.4292 24.5883 31.3997 24.6253C31.3546 24.6817 31.3091 24.7378 31.2626 24.793C31.2338 24.8272 31.2041 24.8608 31.1747 24.8945C31.1264 24.9499 31.0782 25.0055 31.0285 25.0596C30.999 25.0917 30.9684 25.1225 30.9383 25.1542C30.8575 25.2395 30.7748 25.3228 30.6905 25.4046C30.6405 25.453 30.5907 25.5016 30.5394 25.5487C30.5039 25.5814 30.4676 25.613 30.4315 25.6451C30.3727 25.6973 30.3135 25.749 30.2532 25.7995C30.2226 25.8251 30.1917 25.8505 30.1607 25.8757C30.0878 25.9351 30.014 25.9932 29.9389 26.0501C29.9185 26.0655 29.8984 26.0812 29.8779 26.0966C28.5141 27.1104 26.8259 27.7114 24.9998 27.7114C23.1735 27.7114 21.4851 27.1103 20.1213 26.0961C20.1012 26.0811 20.0815 26.0657 20.0615 26.0505C19.9861 25.9935 19.9119 25.9349 19.8388 25.8753C19.808 25.8502 19.7773 25.8251 19.7469 25.7996C19.6864 25.7489 19.6271 25.6969 19.568 25.6446C19.5322 25.6126 19.4959 25.5812 19.4606 25.5487C19.4092 25.5015 19.3593 25.4528 19.3091 25.4043C19.2244 25.3223 19.1415 25.2387 19.0605 25.1532C19.0308 25.1219 19.0005 25.0914 18.9713 25.0597C18.9215 25.0055 18.8733 24.9498 18.825 24.8944C18.7956 24.8607 18.7661 24.8272 18.7372 24.793C18.6907 24.7378 18.6453 24.6817 18.6002 24.6255C18.5706 24.5884 18.5412 24.5512 18.5123 24.5137C18.4697 24.4586 18.4277 24.4032 18.3865 24.3471C18.3547 24.3036 18.3237 24.2593 18.2926 24.2151C18.2561 24.1633 18.2194 24.1118 18.1842 24.0591C18.1271 23.9739 18.0717 23.8875 18.0179 23.8001C17.9981 23.768 17.9791 23.7356 17.9597 23.7033C17.9097 23.6194 17.8607 23.5351 17.8136 23.4493C17.7962 23.4178 17.7799 23.3857 17.7628 23.354C17.7204 23.2743 17.6789 23.1939 17.6391 23.1127C17.6248 23.0838 17.611 23.0547 17.5972 23.0257C17.595 23.0212 17.593 23.0168 17.591 23.0124C17.5538 22.934 17.5182 22.8548 17.4835 22.7749C17.467 22.7369 17.4502 22.6991 17.4344 22.661C17.3954 22.5675 17.3582 22.4733 17.3227 22.3783C17.3035 22.327 17.2858 22.2752 17.2676 22.2235C17.249 22.1705 17.231 22.117 17.2134 22.0635C17.1945 22.0055 17.1754 21.9475 17.1577 21.8892C17.1313 21.8021 17.1063 21.7145 17.0828 21.6263C17.0663 21.5644 17.0514 21.502 17.0362 21.4397C17.0244 21.3907 17.013 21.3417 17.0021 21.2924C16.9887 21.232 16.9751 21.1718 16.9631 21.1111C16.9444 21.0166 16.9273 20.9216 16.912 20.826C16.9037 20.7744 16.8965 20.7228 16.8891 20.6712C16.8782 20.5948 16.8684 20.518 16.8597 20.441C16.8554 20.403 16.8504 20.365 16.8465 20.327C16.8354 20.2139 16.8269 20.0999 16.8205 19.9855C16.8186 19.9526 16.8171 19.9198 16.8157 19.8869C16.8102 19.7646 16.8063 19.6419 16.8063 19.5184C16.8063 19.386 16.81 19.2546 16.8163 19.1238C16.8181 19.0882 16.821 19.0529 16.823 19.0174C16.829 18.9192 16.8361 18.8212 16.8455 18.7237C16.8487 18.6898 16.8526 18.6559 16.8562 18.6221C16.8677 18.5166 16.8808 18.4116 16.8963 18.3073C16.8993 18.2871 16.9022 18.2667 16.9055 18.2464C17.369 15.2852 19.4238 12.8449 22.165 11.8309ZM6.32015 14.9876C6.32015 10.4698 9.99562 6.7942 14.5135 6.7942C16.8711 6.7942 19.0982 7.82042 20.638 9.54989C17.0635 11.1027 14.5859 14.4603 14.1815 18.3828C14.1786 18.4094 14.1766 18.4361 14.1741 18.4628C14.1606 18.6025 14.15 18.7428 14.142 18.8839C14.1396 18.9268 14.1369 18.9696 14.1349 19.0127C14.1272 19.1807 14.122 19.3491 14.122 19.5188C14.122 19.6901 14.127 19.861 14.135 20.0317C14.1382 20.1004 14.1439 20.1685 14.1483 20.2368C14.1549 20.3351 14.1616 20.4333 14.1707 20.5313C14.1788 20.6185 14.1887 20.705 14.1989 20.7916C14.2078 20.8671 14.2172 20.9422 14.2276 21.0174C14.2413 21.1161 14.2561 21.2143 14.2723 21.3122C14.2821 21.3703 14.2929 21.4283 14.3035 21.4863C14.3236 21.5958 14.3441 21.7051 14.3675 21.8134C14.3753 21.8491 14.3841 21.8845 14.3922 21.9201C14.4833 22.3232 14.5965 22.7179 14.7313 23.1027C14.7399 23.1276 14.7474 23.1527 14.7561 23.1774C14.6752 23.1798 14.5941 23.181 14.5133 23.181C9.99562 23.1808 6.32015 19.5054 6.32015 14.9876ZM12.7372 32.1026C12.7077 32.1492 12.6795 32.1966 12.6505 32.2434C12.5892 32.3425 12.5284 32.4418 12.4696 32.5421C12.4367 32.5981 12.405 32.6544 12.373 32.7108C12.3202 32.8038 12.2679 32.8971 12.2172 32.9912C12.1853 33.0504 12.1538 33.1099 12.1227 33.1694C12.0738 33.2629 12.0262 33.357 11.9795 33.4514C11.9501 33.5107 11.9208 33.5699 11.8924 33.6295C11.8448 33.729 11.7991 33.8293 11.7538 33.9297C11.7293 33.9843 11.704 34.0385 11.6803 34.0934C11.6279 34.2137 11.578 34.3349 11.529 34.4565C11.5146 34.4921 11.4993 34.5273 11.4854 34.5628C11.4232 34.7208 11.3637 34.8799 11.3074 35.0398C11.2945 35.0764 11.2829 35.1135 11.2702 35.1501C11.2278 35.2733 11.1864 35.397 11.1474 35.5211C11.1295 35.5782 11.113 35.6355 11.0958 35.6927C11.0643 35.7979 11.0333 35.9033 11.0041 36.0094C10.9868 36.0724 10.9703 36.1357 10.9538 36.199C10.9272 36.3008 10.9017 36.4028 10.8775 36.5052C10.8621 36.5701 10.8471 36.6349 10.8327 36.6999C10.8096 36.8036 10.788 36.9078 10.7672 37.0121C10.7547 37.0748 10.7418 37.1375 10.7302 37.2004C10.7091 37.314 10.6902 37.4281 10.6718 37.5423C10.6632 37.596 10.6536 37.6494 10.6456 37.7031C10.6206 37.8709 10.5979 38.0391 10.5789 38.2081C10.5786 38.2101 10.5785 38.2121 10.5783 38.2142C10.561 38.3679 10.5461 38.5218 10.5336 38.6763H2.68469V35.3104C2.68469 30.7118 5.3283 26.5834 9.46996 24.6212C10.9788 25.4142 12.6939 25.8657 14.5134 25.8657C15.0396 25.8657 15.5674 25.8267 16.0912 25.7497C16.1728 25.8661 16.2558 25.9812 16.3417 26.0943C16.3707 26.1323 16.4007 26.1693 16.4303 26.2069C16.5151 26.3154 16.6012 26.4226 16.69 26.5277C16.7264 26.5708 16.7637 26.613 16.8008 26.6555C16.884 26.7511 16.9686 26.8454 17.055 26.9379C17.1004 26.9867 17.1466 27.0346 17.1927 27.0825C17.2718 27.164 17.3519 27.2443 17.4334 27.3233C17.464 27.353 17.4929 27.3844 17.5238 27.4138C17.4071 27.4843 17.2915 27.5565 17.177 27.6302C17.1584 27.6421 17.1401 27.6547 17.1216 27.6668C17.0071 27.7412 16.8938 27.8172 16.7816 27.8946C16.7428 27.9215 16.7041 27.9486 16.6655 27.9757C16.5655 28.0462 16.4665 28.1179 16.3684 28.1907C16.3374 28.2138 16.306 28.2364 16.2752 28.2597C16.1504 28.3541 16.027 28.4502 15.9053 28.5485C15.8787 28.57 15.8527 28.5921 15.8261 28.6138C15.7292 28.6932 15.6332 28.7739 15.5384 28.8557C15.5016 28.8874 15.4651 28.9194 15.4286 28.9514C15.3337 29.0351 15.24 29.1199 15.1473 29.206C15.1231 29.2284 15.0984 29.2504 15.0744 29.2731C14.9605 29.3802 14.8485 29.4893 14.738 29.6003C14.7093 29.6292 14.6812 29.6586 14.6527 29.6876C14.5682 29.7739 14.4846 29.8612 14.402 29.9496C14.3692 29.9848 14.3365 30.02 14.304 30.0555C14.2111 30.157 14.1196 30.2598 14.0295 30.3641C14.0154 30.3805 14.0008 30.3963 13.9867 30.4129C13.884 30.5327 13.7836 30.6549 13.6845 30.7782C13.6569 30.8126 13.6299 30.8475 13.6026 30.8823C13.5281 30.9769 13.4547 31.0725 13.3825 31.169C13.3546 31.2063 13.3265 31.2434 13.299 31.2809C13.2045 31.4098 13.1112 31.5398 13.0206 31.672C12.9233 31.814 12.829 31.9578 12.7372 32.1026ZM13.1712 43.2075V41.3611V39.8416C13.1712 39.6926 13.174 39.5441 13.1795 39.3961C13.1813 39.3474 13.1852 39.299 13.1876 39.2504C13.1924 39.1516 13.197 39.0527 13.2042 38.9543C13.2087 38.8946 13.2154 38.8354 13.2207 38.7758C13.2285 38.6891 13.2355 38.6022 13.2452 38.516C13.2523 38.453 13.2615 38.3903 13.2696 38.3273C13.2801 38.2453 13.2899 38.1631 13.3019 38.0815C13.3117 38.0166 13.3236 37.9521 13.3343 37.8874C13.3475 37.8088 13.3597 37.7298 13.3744 37.6516C13.3869 37.5854 13.4014 37.5199 13.415 37.454C13.4305 37.378 13.4454 37.3018 13.4625 37.2263C13.4775 37.1597 13.4947 37.0938 13.5108 37.0275C13.5289 36.9537 13.5463 36.8795 13.5657 36.806C13.5834 36.7393 13.603 36.6733 13.6218 36.6071C13.6422 36.535 13.6621 36.4628 13.6838 36.3912C13.7041 36.3247 13.7264 36.2586 13.7477 36.1924C13.7706 36.1222 13.7927 36.0519 13.8167 35.9822C13.8396 35.9163 13.8641 35.851 13.888 35.7856C13.9133 35.7166 13.938 35.6473 13.9644 35.5789C13.9896 35.5138 14.0165 35.4495 14.0427 35.3848C14.0702 35.3172 14.0973 35.2493 14.126 35.1823C14.1538 35.1178 14.1831 35.0539 14.2119 34.99C14.2416 34.9241 14.271 34.8579 14.3019 34.7927C14.3321 34.7289 14.3637 34.6659 14.395 34.6027C14.427 34.5383 14.4585 34.4737 14.4915 34.41C14.5242 34.3471 14.5581 34.2851 14.5918 34.223C14.6259 34.16 14.6596 34.0971 14.6948 34.0348C14.7297 33.973 14.7659 33.9122 14.8017 33.8511C14.838 33.7897 14.874 33.728 14.9114 33.6671C14.9486 33.6066 14.987 33.547 15.0252 33.4871C15.0636 33.4271 15.1018 33.3671 15.1412 33.3078C15.1807 33.2484 15.2212 33.1899 15.2618 33.1314C15.3022 33.073 15.3424 33.0146 15.3838 32.9569C15.4254 32.8989 15.4682 32.8417 15.511 32.7844C15.5535 32.7276 15.5957 32.6708 15.6391 32.6148C15.6829 32.5583 15.7277 32.5026 15.7725 32.4468C15.817 32.3915 15.8615 32.3363 15.9069 32.2818C15.9527 32.227 15.9994 32.1729 16.0461 32.119C16.0927 32.0651 16.1394 32.0113 16.187 31.9582C16.2347 31.905 16.2834 31.8527 16.332 31.8003C16.3806 31.7481 16.4292 31.6961 16.4787 31.6449C16.5284 31.5933 16.579 31.5426 16.6298 31.492C16.6804 31.4414 16.7312 31.391 16.7828 31.3412C16.8342 31.2917 16.8864 31.2428 16.9389 31.1941C16.9915 31.1452 17.0444 31.0965 17.098 31.0485C17.1514 31.0007 17.2053 30.9536 17.2597 30.9067C17.3142 30.8596 17.3691 30.8127 17.4246 30.7666C17.4797 30.7207 17.5354 30.6754 17.5915 30.6304C17.6481 30.5851 17.705 30.5401 17.7624 30.4957C17.8192 30.4519 17.8765 30.4087 17.9341 30.3657C17.9926 30.3221 18.0516 30.279 18.1112 30.2365C18.1694 30.1947 18.2282 30.1536 18.2874 30.1128C18.3481 30.0711 18.409 30.0299 18.4705 29.9892C18.5302 29.9497 18.5905 29.9107 18.6511 29.8722C18.7137 29.8323 18.7768 29.793 18.8403 29.7543C18.9015 29.717 18.9631 29.6801 19.0252 29.6438C19.0896 29.6061 19.1546 29.5689 19.2199 29.5323C19.2826 29.4971 19.3457 29.4623 19.4092 29.4282C19.4757 29.3925 19.5426 29.3575 19.61 29.3229C19.6739 29.29 19.7381 29.2576 19.8028 29.2258C19.8537 29.2009 19.9051 29.1767 19.9565 29.1524C21.4651 29.9455 23.1805 30.3967 24.9999 30.3967C26.8195 30.3967 28.5347 29.9455 30.0434 29.1524C30.0944 29.1766 30.1454 29.2006 30.1959 29.2253C30.2614 29.2575 30.3262 29.2903 30.3909 29.3234C30.4575 29.3576 30.5238 29.3923 30.5896 29.4276C30.6537 29.4621 30.7175 29.4972 30.7809 29.5328C30.8454 29.5691 30.9096 29.6057 30.9732 29.643C31.0362 29.6798 31.0986 29.7173 31.1606 29.7551C31.2233 29.7934 31.2855 29.832 31.3472 29.8714C31.4087 29.9104 31.4696 29.9499 31.5302 29.99C31.591 30.0302 31.6512 30.071 31.7111 30.1122C31.7708 30.1534 31.8303 30.1949 31.8892 30.237C31.9482 30.2792 32.0064 30.3218 32.0644 30.3651C32.1227 30.4083 32.1805 30.4519 32.2378 30.4962C32.2948 30.5402 32.3511 30.5848 32.4072 30.6298C32.4636 30.675 32.5197 30.7205 32.5753 30.7667C32.6305 30.8126 32.685 30.8592 32.7392 30.906C32.7938 30.9531 32.8482 31.0005 32.9019 31.0487C32.9551 31.0964 33.0075 31.1447 33.0598 31.1932C33.1127 31.2423 33.1654 31.2917 33.2174 31.3418C33.2685 31.391 33.3188 31.441 33.3689 31.491C33.4199 31.542 33.4709 31.5932 33.521 31.645C33.5701 31.696 33.6186 31.7475 33.6668 31.7994C33.7159 31.8521 33.7649 31.905 33.813 31.9586C33.8602 32.0112 33.9065 32.0645 33.9527 32.1179C33.9998 32.1723 34.0469 32.2268 34.093 32.2821C34.1382 32.3362 34.1824 32.3911 34.2265 32.446C34.2716 32.5021 34.3167 32.5581 34.3608 32.615C34.404 32.6707 34.446 32.7272 34.4881 32.7837C34.5311 32.8412 34.5741 32.8987 34.6159 32.957C34.6572 33.0143 34.6973 33.0726 34.7374 33.1307C34.7781 33.1895 34.8189 33.2483 34.8585 33.3079C34.8977 33.3668 34.9356 33.4264 34.9737 33.486C35.0122 33.5463 35.0509 33.6064 35.0883 33.6674C35.1254 33.7276 35.1611 33.7888 35.197 33.8498C35.2333 33.9113 35.2698 33.9726 35.3048 34.0348C35.3399 34.0968 35.3734 34.1596 35.4074 34.2222C35.4412 34.2846 35.4753 34.3469 35.5079 34.4098C35.541 34.4734 35.5724 34.538 35.6043 34.6023C35.6356 34.6655 35.6674 34.7286 35.6976 34.7925C35.7285 34.8578 35.7577 34.9237 35.7873 34.9894C35.8163 35.0537 35.8457 35.1176 35.8734 35.1825C35.902 35.2489 35.9288 35.3162 35.9561 35.3833C35.9827 35.4485 36.0098 35.5135 36.0352 35.5793C36.0615 35.6473 36.0861 35.7162 36.1112 35.7849C36.1352 35.8506 36.1598 35.9159 36.1826 35.9821C36.2068 36.052 36.229 36.1228 36.2519 36.1933C36.2732 36.2592 36.2953 36.3248 36.3155 36.3912C36.3374 36.4628 36.3571 36.5351 36.3776 36.6072C36.3964 36.6734 36.416 36.7393 36.4337 36.806C36.4532 36.8795 36.4705 36.9536 36.4886 37.0275C36.5049 37.0937 36.5219 37.1597 36.537 37.2263C36.554 37.3018 36.5688 37.3779 36.5845 37.4537C36.598 37.5196 36.6125 37.5853 36.625 37.6516C36.6397 37.7292 36.6517 37.8074 36.6649 37.8855C36.6758 37.9509 36.6878 38.0159 36.6976 38.0817C36.7097 38.1626 36.7194 38.2442 36.7299 38.3256C36.7381 38.3891 36.7474 38.4521 36.7546 38.5159C36.7642 38.6021 36.7712 38.6889 36.779 38.7757C36.7844 38.8353 36.7911 38.8945 36.7955 38.9542C36.8029 39.0526 36.8073 39.1516 36.8121 39.2506C36.8146 39.299 36.8185 39.3474 36.8202 39.396C36.8257 39.544 36.8285 39.6925 36.8285 39.8415V41.3609V43.2075H13.1712ZM39.4669 38.6763C39.4406 38.3493 39.4027 38.0243 39.3547 37.7014C39.347 37.6502 39.3379 37.5995 39.3297 37.5485C39.3111 37.4316 39.2916 37.3149 39.27 37.1987C39.2586 37.1375 39.2461 37.0765 39.2339 37.0154C39.2128 36.9093 39.1908 36.8034 39.1673 36.6978C39.1531 36.6342 39.1383 36.5706 39.1233 36.5072C39.0987 36.4036 39.0729 36.3004 39.0461 36.1974C39.0298 36.135 39.0136 36.0727 38.9964 36.0104C38.967 35.9033 38.9356 35.7967 38.9037 35.6903C38.8867 35.6342 38.8706 35.5779 38.853 35.5219C38.8134 35.3959 38.7716 35.2705 38.7285 35.1454C38.7164 35.1105 38.7054 35.0752 38.693 35.0403C38.6364 34.8799 38.5769 34.7204 38.5145 34.5619C38.5011 34.5279 38.4865 34.4944 38.4728 34.4604C38.4232 34.3373 38.3725 34.2145 38.3195 34.0926C38.296 34.0385 38.2711 33.9851 38.247 33.9313C38.2013 33.8298 38.1552 33.7287 38.1071 33.6283C38.0791 33.5695 38.0501 33.5111 38.0212 33.4527C37.9741 33.3574 37.9259 33.2625 37.8766 33.1681C37.8458 33.1091 37.8147 33.0503 37.7831 32.9916C37.7321 32.8973 37.6797 32.8036 37.6265 32.7101C37.5946 32.654 37.5631 32.5979 37.5304 32.5422C37.4714 32.4414 37.4103 32.3417 37.3485 32.2421C37.3198 32.1956 37.2919 32.1488 37.2626 32.1027C37.1707 31.9579 37.0765 31.8141 36.979 31.672C36.8883 31.5396 36.795 31.4097 36.7005 31.2808C36.6731 31.2435 36.6452 31.2066 36.6175 31.1695C36.5449 31.0725 36.4712 30.9766 36.3964 30.8816C36.3694 30.8474 36.3427 30.8127 36.3153 30.7788C36.2161 30.655 36.1153 30.5326 36.0124 30.4125C35.999 30.3969 35.9851 30.3817 35.9717 30.3661C35.881 30.261 35.7886 30.1574 35.695 30.0551C35.6628 30.02 35.6305 29.9852 35.598 29.9503C35.515 29.8613 35.4309 29.7734 35.3458 29.6866C35.3177 29.6581 35.2902 29.6292 35.2619 29.6009C35.1511 29.4897 35.0386 29.3802 34.9245 29.2728C34.9011 29.2507 34.8769 29.2292 34.8533 29.2072C34.76 29.1206 34.6657 29.0353 34.5704 28.9513C34.5342 28.9194 34.4977 28.8877 34.4612 28.856C34.3661 28.774 34.2702 28.6933 34.1731 28.6138C34.1467 28.5922 34.1208 28.5701 34.0942 28.5486C33.9726 28.4503 33.8492 28.3542 33.7245 28.26C33.6933 28.2365 33.6617 28.2137 33.6304 28.1905C33.5327 28.118 33.4343 28.0466 33.3347 27.9765C33.2956 27.949 33.2565 27.9216 33.2174 27.8945C33.1062 27.8178 32.9941 27.7427 32.8808 27.6691C32.861 27.6562 32.8415 27.6428 32.8216 27.63C32.7073 27.5566 32.5921 27.4845 32.4756 27.4142C32.5056 27.3856 32.5338 27.3551 32.5635 27.3261C32.6467 27.2456 32.7285 27.1637 32.809 27.0805C32.854 27.034 32.8987 26.9875 32.9427 26.9402C33.0306 26.8463 33.1163 26.7504 33.2008 26.6534C33.2368 26.6121 33.2729 26.5712 33.3082 26.5293C33.3983 26.4227 33.4858 26.3139 33.5719 26.2037C33.6001 26.1677 33.6289 26.1323 33.6566 26.0959C33.7429 25.9825 33.8262 25.8667 33.9083 25.75C34.432 25.8269 34.9599 25.8658 35.486 25.8658C37.3056 25.8658 39.0208 25.4145 40.5295 24.6213C44.6713 26.5836 47.3148 30.7119 47.3148 35.3105V38.6763H39.4669Z" fill="black"/>
</g>
<defs>
<clipPath id="clip0_509_4427">
<rect width="50" height="50" fill="white"/>
</clipPath>
</defs>
</svg>
