<svg width="27" height="30" viewBox="0 0 27 30" fill="none" xmlns="http://www.w3.org/2000/svg">
<g clip-path="url(#clip0_509_4348)">
<path d="M17.8125 7.5C17.8125 6.2568 17.3186 5.06451 16.4396 4.18544C15.5605 3.30636 14.3682 2.8125 13.125 2.8125C11.8818 2.8125 10.6895 3.30636 9.81044 4.18544C8.93136 5.06451 8.4375 6.2568 8.4375 7.5C8.4375 8.7432 8.93136 9.93549 9.81044 10.8146C10.6895 11.6936 11.8818 12.1875 13.125 12.1875C14.3682 12.1875 15.5605 11.6936 16.4396 10.8146C17.3186 9.93549 17.8125 8.7432 17.8125 7.5ZM5.625 7.5C5.625 5.51088 6.41518 3.60322 7.8217 2.1967C9.22822 0.790176 11.1359 0 13.125 0C15.1141 0 17.0218 0.790176 18.4283 2.1967C19.8348 3.60322 20.625 5.51088 20.625 7.5C20.625 9.48912 19.8348 11.3968 18.4283 12.8033C17.0218 14.2098 15.1141 15 13.125 15C11.1359 15 9.22822 14.2098 7.8217 12.8033C6.41518 11.3968 5.625 9.48912 5.625 7.5ZM2.88867 27.1875H23.3672C22.8457 23.4785 19.6582 20.625 15.8086 20.625H10.4531C6.60352 20.625 3.41602 23.4785 2.89453 27.1875H2.88867ZM0 28.2598C0 22.4883 4.67578 17.8125 10.4473 17.8125H15.8027C21.5742 17.8125 26.25 22.4883 26.25 28.2598C26.25 29.2207 25.4707 30 24.5098 30H1.74023C0.779297 30 0 29.2207 0 28.2598Z" fill="black"/>
</g>
<defs>
<clipPath id="clip0_509_4348">
<rect width="26.25" height="30" fill="white"/>
</clipPath>
</defs>
</svg>
