<svg width="106" height="100" viewBox="0 0 106 100" fill="none" xmlns="http://www.w3.org/2000/svg">
<path d="M58.9375 46.9688L59.1562 47.1875C54.2604 51.3958 50.2812 53.5 47.2188 53.5C46.1979 53.5 45.4167 53.2396 44.875 52.7188C44.3542 52.1979 44.0938 51.6146 44.0938 50.9688C44.0938 50.2604 44.3021 49.4792 44.7188 48.625C45.1562 47.75 45.6667 46.9688 46.25 46.2812C46.8333 45.5938 48.0312 44.4062 49.8438 42.7188L51.8438 40.9062C53.0521 39.8021 53.6562 38.8021 53.6562 37.9062C53.6562 37.1354 53.3958 36.3333 52.875 35.5C52.375 35.5625 51.9792 35.5938 51.6875 35.5938C50.9167 35.5938 50.2396 35.4792 49.6562 35.25C49.0938 35 48.8125 34.6979 48.8125 34.3438C48.8125 34.1354 48.9271 33.9479 49.1562 33.7812C49.4062 33.5938 49.6979 33.5 50.0312 33.5C51.2188 33.5 52.2292 34.0833 53.0625 35.25C56.8125 34.7708 60.1354 32.9062 63.0312 29.6562C65.9479 26.3854 67.4062 23.4479 67.4062 20.8438C67.4062 18.4896 66.5417 16.6875 64.8125 15.4375C61.9583 17.5 59.3646 19.8229 57.0312 22.4062C54.6979 24.9896 51.5729 28.9792 47.6562 34.375L44.3125 39C43.0625 40.7292 41.1771 42.7083 38.6562 44.9375C36.1562 47.1667 33 49.1667 29.1875 50.9375C25.3958 52.6875 21.7292 53.5625 18.1875 53.5625C15.0417 53.5625 12.5208 52.9688 10.625 51.7812C8.72917 50.5729 7.78125 49.2396 7.78125 47.7812C7.78125 47.1979 7.97917 46.6562 8.375 46.1562C8.79167 45.6354 9.32292 45.375 9.96875 45.375C10.5938 45.375 11.1146 45.5625 11.5312 45.9375C11.9479 46.2917 12.1562 46.7188 12.1562 47.2188C12.1562 47.6979 11.9792 48.1146 11.625 48.4688C11.2917 48.8021 10.8958 48.9688 10.4375 48.9688C10.0625 48.9688 9.6875 48.8438 9.3125 48.5938C8.95833 48.3229 8.77083 48.0208 8.75 47.6875C8.75 47.3333 8.67708 47.1562 8.53125 47.1562C8.23958 47.1562 8.09375 47.3646 8.09375 47.7812C8.09375 49.0312 8.98958 50.2604 10.7812 51.4688C12.5938 52.6562 15.1354 53.25 18.4062 53.25C22.6146 53.25 26.5833 51.9167 30.3125 49.25C34.0417 46.5625 38.1875 42.4062 42.75 36.7812L47.2188 31.25C51.6979 25.7083 57.4688 20.375 64.5312 15.25C62.8646 13.6875 60.4375 12.4167 57.25 11.4375C54.0625 10.4375 50.4167 9.9375 46.3125 9.9375C37.7292 9.9375 30.3438 12.2188 24.1562 16.7812C17.9896 21.3229 14.9062 25.8021 14.9062 30.2188C14.9062 32.2604 15.8438 33.9896 17.7188 35.4062C19.5938 36.8229 21.7604 37.5312 24.2188 37.5312C27.0729 37.5312 30.2812 36.8125 33.8438 35.375C37.4062 33.9167 40.2188 32.125 42.2812 30C44.3646 27.875 45.4062 25.7396 45.4062 23.5938C45.4062 22.1771 44.9167 21.0833 43.9375 20.3125C42.9583 19.5208 41.6458 19.125 40 19.125C36.4375 19.125 32.9375 20.1979 29.5 22.3438C26.0833 24.4896 23.3333 27.3854 21.25 31.0312L21.0312 30.9062C23.0938 27.2812 25.8438 24.3646 29.2812 22.1562C32.7396 19.9271 36.2917 18.8125 39.9375 18.8125C41.9375 18.8125 43.3958 19.2917 44.3125 20.25C45.25 21.2083 45.7188 22.375 45.7188 23.75C45.7188 26.0417 44.6979 28.3333 42.6562 30.625C40.6354 32.9167 37.9479 34.7604 34.5938 36.1562C31.2604 37.5521 28.1146 38.25 25.1562 38.25C22.4896 38.25 20.0625 37.4688 17.875 35.9062C15.6875 34.3438 14.5938 32.5208 14.5938 30.4375C14.5938 27.375 16.0938 24.1667 19.0938 20.8125C22.1146 17.4583 25.9688 14.7604 30.6562 12.7188C35.3438 10.6771 40.5938 9.65625 46.4062 9.65625C54.4271 9.65625 60.5521 11.4375 64.7812 15C68.2812 12.75 70.6875 11.4062 72 10.9688L72.0625 11.25C70.2917 11.8958 67.9792 13.2188 65.125 15.2188C67.6458 17.5312 68.9062 20.1667 68.9062 23.125C68.9062 26.0208 67.625 28.6146 65.0625 30.9062C62.5208 33.1771 58.5833 34.6979 53.25 35.4688C53.8958 36.4896 54.2188 37.5833 54.2188 38.75C54.2188 39.6458 53.9375 40.6771 53.375 41.8438C52.8333 42.9896 51.5729 44.4688 49.5938 46.2812C47.6354 48.0938 46.4271 49.3333 45.9688 50C45.5104 50.6667 45.2812 51.2188 45.2812 51.6562C45.2812 52.6979 46 53.2188 47.4375 53.2188C48.8958 53.2188 50.8229 52.5104 53.2188 51.0938C55.6146 49.6562 57.5208 48.2812 58.9375 46.9688ZM52.5625 35.1875C51.8333 34.2708 51.0104 33.8125 50.0938 33.8125C49.4479 33.8125 49.125 33.9896 49.125 34.3438C49.125 34.5729 49.3646 34.7917 49.8438 35C50.3438 35.1875 50.8854 35.2812 51.4688 35.2812C51.7396 35.2812 52.1042 35.25 52.5625 35.1875Z" fill="black"/>
<path d="M105.3 28.0312C105.363 28.0312 105.019 28.3333 104.269 28.9375C104.04 29.125 103.811 29.3021 103.582 29.4688L102.707 29.9375C102.415 30.0833 102.082 30.2188 101.707 30.3438C101.311 30.4896 100.894 30.625 100.457 30.75C100.04 30.875 99.6128 30.9792 99.1753 31.0625C98.7795 31.1458 98.394 31.1979 98.019 31.2188C97.644 31.2604 97.2586 31.2812 96.8628 31.2812C95.4045 31.2812 93.4774 31.1354 91.0815 30.8438C83.6649 29.8854 76.6961 29.4062 70.1753 29.4062C65.592 29.4062 62.1232 29.7917 59.769 30.5625C57.4357 31.3125 55.269 32.2708 53.269 33.4375C51.2899 34.6042 49.519 36.0312 47.9565 37.7188C46.4149 39.3854 45.644 40.9792 45.644 42.5C45.644 43.8333 46.2899 44.9896 47.5815 45.9688C48.8732 46.9271 50.5086 47.4062 52.4878 47.4062C56.2378 47.4062 59.8107 46.375 63.2065 44.3125C66.6024 42.2292 68.3003 40.0729 68.3003 37.8438C68.3003 37.0312 67.9461 36.3438 67.2378 35.7812C66.5503 35.1979 65.592 34.9062 64.3628 34.9062C59.9253 34.9062 55.4565 37.125 50.9565 41.5625L50.7065 41.4375C52.644 39.2083 54.8524 37.5104 57.3315 36.3438C59.8315 35.1562 62.1753 34.5625 64.3628 34.5625C65.7795 34.5625 66.8524 34.9062 67.5815 35.5938C68.3107 36.2812 68.6753 37.0208 68.6753 37.8125C68.6753 39.6042 67.6961 41.3125 65.7378 42.9375C63.7795 44.5625 61.5295 45.7708 58.9878 46.5625C56.467 47.3333 54.2274 47.7188 52.269 47.7188C50.3107 47.7188 48.644 47.2188 47.269 46.2188C45.9149 45.2188 45.2378 44.0625 45.2378 42.75C45.2378 39.7292 47.8107 36.5312 52.9565 33.1562C58.1024 29.7812 66.3315 28.0938 77.644 28.0938C81.6232 28.0938 85.8211 28.25 90.2378 28.5625C94.6753 28.875 97.8524 29.0312 99.769 29.0312C100.019 29.0312 100.269 29.0208 100.519 29C100.79 29 101.05 28.9896 101.3 28.9688C101.55 28.9479 101.811 28.9167 102.082 28.875C102.332 28.8542 102.55 28.8229 102.738 28.7812L103.332 28.6562C103.54 28.6146 103.748 28.5625 103.957 28.5C104.165 28.4375 104.384 28.3646 104.613 28.2812C105.092 28.1146 105.321 28.0312 105.3 28.0312ZM69.2065 51.2188C65.5399 58.1146 61.092 63.3646 55.8628 66.9688C50.6336 70.5521 44.4878 72.3438 37.4253 72.3438C34.2795 72.3438 31.9253 71.8125 30.3628 70.75C28.8211 69.6875 28.0503 68.3854 28.0503 66.8438C28.0503 65.9688 28.3211 65.2292 28.8628 64.625C29.4253 64 30.0815 63.6875 30.8315 63.6875C31.3732 63.6875 31.8315 63.8646 32.2065 64.2188C32.6024 64.5521 32.8003 64.9583 32.8003 65.4375C32.8003 65.9375 32.6024 66.375 32.2065 66.75C31.8315 67.125 31.4149 67.3125 30.9565 67.3125C30.6024 67.3125 30.2274 67.1979 29.8315 66.9688C29.4565 66.7188 29.2065 66.4375 29.0815 66.125C28.6649 66.1667 28.4565 66.4688 28.4565 67.0312C28.4565 68.4062 29.217 69.5938 30.7378 70.5938C32.2586 71.5729 34.6649 72.0625 37.9565 72.0625C44.1232 72.0625 49.4149 70.2396 53.8315 66.5938C58.269 62.9479 62.6232 57.8854 66.894 51.4062C66.1857 51.3646 65.7274 51.3438 65.519 51.3438C63.9774 51.3438 61.9253 51.625 59.3628 52.1875C56.8003 52.75 54.2378 53.6042 51.6753 54.75L51.5503 54.5C57.0295 52.2083 61.9045 51.0625 66.1753 51.0625C66.5503 51.0625 66.8628 51.0729 67.1128 51.0938C72.1753 43.6354 78.4149 37.2083 85.8315 31.8125L85.894 31.9688C82.6232 34.5729 80.3211 36.5521 78.9878 37.9062C77.6545 39.2396 75.9357 41.3125 73.8315 44.125C71.7274 46.9375 70.2378 49.1979 69.3628 50.9062C70.967 50.9062 72.4461 50.7708 73.8003 50.5C76.2586 47.0833 78.1649 45.375 79.519 45.375C80.3315 45.375 80.7378 45.6667 80.7378 46.25C80.7378 47.0208 80.1128 47.875 78.8628 48.8125C77.6128 49.75 76.0711 50.375 74.2378 50.6875C73.342 52.0417 72.6545 53.8958 72.1753 56.25L69.8315 56.2812C70.4774 55.1979 70.8628 54.5833 70.9878 54.4375C71.1128 54.2708 71.9357 53.0833 73.4565 50.875C71.4565 51.1042 70.2482 51.2188 69.8315 51.2188H69.2065ZM74.519 50.25C75.894 50.0833 77.2065 49.5833 78.4565 48.75C79.7065 47.8958 80.3315 47.1146 80.3315 46.4062C80.3315 45.9271 80.019 45.6875 79.394 45.6875C78.7899 45.6875 78.0086 46.1354 77.0503 47.0312C76.092 47.9271 75.2482 49 74.519 50.25Z" fill="black"/>
</svg>
