<svg width="22" height="25" viewBox="0 0 22 25" fill="none" xmlns="http://www.w3.org/2000/svg">
<path d="M19.5312 10.9375H18.3594V7.42188C18.3594 3.33008 15.0293 0 10.9375 0C6.8457 0 3.51562 3.33008 3.51562 7.42188V10.9375H2.34375C1.0498 10.9375 0 11.9873 0 13.2812V22.6562C0 23.9502 1.0498 25 2.34375 25H19.5312C20.8252 25 21.875 23.9502 21.875 22.6562V13.2812C21.875 11.9873 20.8252 10.9375 19.5312 10.9375ZM14.4531 10.9375H7.42188V7.42188C7.42188 5.4834 8.99902 3.90625 10.9375 3.90625C12.876 3.90625 14.4531 5.4834 14.4531 7.42188V10.9375Z" fill="black"/>
<path d="M21.8671 17.4677C19.7958 13.6101 15.6953 11 11 11C6.30475 11 2.20304 13.6119 0.132896 17.4681C0.045523 17.6331 0 17.8153 0 18.0002C0 18.185 0.045523 18.3673 0.132896 18.5323C2.20418 22.3899 6.30475 25 11 25C15.6953 25 19.797 22.3881 21.8671 18.5319C21.9545 18.3669 22 18.1847 22 17.9998C22 17.815 21.9545 17.6327 21.8671 17.4677ZM11 23.25C9.9122 23.25 8.84883 22.9421 7.94436 22.3652C7.03989 21.7883 6.33494 20.9684 5.91865 20.0091C5.50237 19.0498 5.39345 17.9942 5.60567 16.9758C5.81789 15.9574 6.34171 15.0219 7.11091 14.2877C7.8801 13.5535 8.8601 13.0534 9.927 12.8509C10.9939 12.6483 12.0998 12.7523 13.1048 13.1496C14.1098 13.547 14.9687 14.2199 15.5731 15.0833C16.1774 15.9466 16.5 16.9616 16.5 18C16.5004 18.6895 16.3583 19.3724 16.0821 20.0095C15.8058 20.6466 15.4007 21.2255 14.8899 21.7131C14.3791 22.2006 13.7726 22.5873 13.1052 22.8511C12.4377 23.1148 11.7224 23.2503 11 23.25ZM11 14.5C10.6727 14.5044 10.3476 14.5508 10.0333 14.6382C10.2923 14.9742 10.4166 15.3877 10.3837 15.8037C10.3507 16.2197 10.1626 16.6107 9.85359 16.9057C9.54454 17.2007 9.13496 17.3802 8.69914 17.4117C8.26332 17.4432 7.83011 17.3245 7.47808 17.0772C7.27763 17.7822 7.31381 18.5294 7.58155 19.2137C7.84928 19.898 8.33508 20.4849 8.97058 20.8919C9.60607 21.2988 10.3593 21.5053 11.1241 21.4822C11.889 21.4591 12.627 21.2077 13.2343 20.7633C13.8416 20.3189 14.2877 19.7038 14.5096 19.0048C14.7316 18.3057 14.7183 17.5578 14.4716 16.8664C14.2249 16.1749 13.7573 15.5747 13.1346 15.1502C12.5118 14.7257 11.7652 14.4983 11 14.5Z" fill="#E77F31"/>
</svg>
