<svg width="10" height="28" viewBox="0 0 10 28" fill="none" xmlns="http://www.w3.org/2000/svg">
<path d="M4.28571 14.7368H2.14286C1.74837 14.7368 1.42857 14.4069 1.42857 14C1.42857 13.5931 1.74837 13.2632 2.14286 13.2632H4.28571V3.68421C4.28571 2.46337 3.32632 1.47368 2.14286 1.47368H0.714286C0.319797 1.47368 0 1.14379 0 0.736842C0 0.329895 0.319797 0 0.714286 0H2.14286C3.31114 0 4.34841 0.578674 5 1.47333C5.65159 0.578674 6.68886 0 7.85714 0H9.28571C9.6802 0 10 0.329895 10 0.736842C10 1.14379 9.6802 1.47368 9.28571 1.47368H7.85714C6.67368 1.47368 5.71429 2.46337 5.71429 3.68421V13.2632H7.85714C8.25163 13.2632 8.57143 13.5931 8.57143 14C8.57143 14.4069 8.25163 14.7368 7.85714 14.7368H5.71429V24.3158C5.71429 25.5366 6.67368 26.5263 7.85714 26.5263H9.28571C9.6802 26.5263 10 26.8562 10 27.2632C10 27.6701 9.6802 28 9.28571 28H7.85714C6.68886 28 5.65159 27.4213 5 26.5267C4.34841 27.4213 3.31114 28 2.14286 28H0.714286C0.319797 28 0 27.6701 0 27.2632C0 26.8562 0.319797 26.5263 0.714286 26.5263H2.14286C3.32632 26.5263 4.28571 25.5366 4.28571 24.3158V14.7368Z" fill="url(#paint0_linear_818_4336)"/>
<defs>
<linearGradient id="paint0_linear_818_4336" x1="5" y1="0" x2="5" y2="28" gradientUnits="userSpaceOnUse">
<stop stop-color="#A30510"/>
<stop offset="0.52" stop-color="#D3878C"/>
<stop offset="1" stop-color="white"/>
</linearGradient>
</defs>
</svg>
