<svg width="25" height="25" viewBox="0 0 25 25" fill="none" xmlns="http://www.w3.org/2000/svg">
<g clip-path="url(#clip0_785_1483)">
<path d="M13.8204 4.07054L13.8206 4.0703C16.1152 1.70272 19.7966 1.34955 22.2483 3.43857C25.092 5.86575 25.2434 10.229 22.6923 12.8617L22.6922 12.8618L13.2441 22.6175C13.244 22.6176 13.244 22.6176 13.244 22.6176C12.8301 23.0447 12.1643 23.0447 11.7504 22.6176C11.7504 22.6176 11.7503 22.6176 11.7503 22.6175L2.30236 12.862C-0.244201 10.2293 -0.09286 5.86594 2.75083 3.4387C5.20271 1.34937 8.88887 1.70296 11.1783 4.06994L11.1789 4.07054L12.1408 5.06175L12.4996 5.43149L12.8584 5.06175L13.8204 4.07054Z" fill="#E71D36" fill-opacity="0.15" stroke="#F3EEEE"/>
</g>
<defs>
<clipPath id="clip0_785_1483">
<rect width="25" height="25" fill="white"/>
</clipPath>
</defs>
</svg>
