<svg width="19" height="25" viewBox="0 0 19 25" fill="none" xmlns="http://www.w3.org/2000/svg">
<path d="M8.26357 7.06304V8.23485L18.2405 12.5014C18.2405 12.5014 18.2405 12.5014 18.2405 12.5015C18.2443 13.9108 17.8967 14.7707 17.494 15.5737C17.4314 15.6985 17.366 15.824 17.2996 15.9518C16.9357 16.6511 16.538 17.4153 16.3755 18.4651C16.3252 18.7899 16.0438 19.0312 15.7122 19.0312H7.33726C6.63038 19.0308 5.95796 18.6228 5.65277 17.9378L5.65203 17.9362C5.32593 17.2113 4.71535 16.0233 4.00723 14.9361C3.65316 14.3925 3.26805 13.8637 2.87538 13.4278C2.49096 13.001 2.06333 12.6221 1.61747 12.4311L1.61745 12.431C0.868538 12.1101 0.500286 11.6022 0.5 10.9373C0.499462 9.62248 1.84944 8.71973 3.07001 9.24281C3.44208 9.4023 3.81728 9.61506 4.19473 9.88236L4.98369 10.4411V9.47432V2.1875C4.98369 1.30567 5.77569 0.5 6.62363 0.5C7.49075 0.5 8.26357 1.27402 8.26357 2.1875V7.06304ZM6.64062 20.8125H16.0156C16.3867 20.8125 16.6875 21.1133 16.6875 21.4844V23.8281C16.6875 24.1992 16.3867 24.5 16.0156 24.5H6.64062C6.26955 24.5 5.96875 24.1992 5.96875 23.8281V21.4844C5.96875 21.1133 6.26955 20.8125 6.64062 20.8125ZM14.8438 21.1797C14.0283 21.1797 13.3672 21.8408 13.3672 22.6562C13.3672 23.4717 14.0283 24.1328 14.8438 24.1328C15.6592 24.1328 16.3203 23.4717 16.3203 22.6562C16.3203 21.8408 15.6592 21.1797 14.8438 21.1797Z" fill="url(#paint0_linear_778_1482)" stroke="white"/>
<defs>
<linearGradient id="paint0_linear_778_1482" x1="9.375" y1="0" x2="9.375" y2="25" gradientUnits="userSpaceOnUse">
<stop stop-color="#E71D36"/>
<stop offset="1" stop-color="#212020"/>
</linearGradient>
</defs>
</svg>
